<?xml version="1.0" encoding="utf-8"?>
<!-- Generator: Adobe Illustrator 25.2.3, SVG Export Plug-In . SVG Version: 6.00 Build 0)  -->
<svg version="1.1" id="Calque_1" xmlns="http://www.w3.org/2000/svg" xmlns:xlink="http://www.w3.org/1999/xlink" x="0px" y="0px"
	 viewBox="0 0 841.89 595.276" style="enable-background:new 0 0 841.89 595.276;" xml:space="preserve">
<style type="text/css">
	.st0{fill:#004F88;}
	.st1{fill:url(#SVGID_1_);}
	.st2{fill:url(#SVGID_2_);}
	.st3{fill:#FFFFFF;}
	.st4{font-family:'Gotham-Bold';}
	.st5{font-size:68.8756px;}
	.st6{letter-spacing:-4;}
	.st7{font-size:67.0838px;}
	.st8{font-size:79.6186px;}
	.st9{letter-spacing:-5;}
</style>
<path class="st0" d="M167.556,366.152l47.897,34.35c1.63,1.169,1.546,3.62-0.16,4.674l-86.118,53.219
	c-2.343,1.448-5.154-0.99-4.053-3.514l21.867-50.101l16.354-37.468C164.058,365.672,166.103,365.109,167.556,366.152z"/>
<linearGradient id="SVGID_1_" gradientUnits="userSpaceOnUse" x1="70.6941" y1="325.344" x2="273.6046" y2="325.344">
	<stop  offset="0" style="stop-color:#478ECB"/>
	<stop  offset="1" style="stop-color:#64A4DA"/>
</linearGradient>
<path class="st1" d="M214.758,229.036c0.951-1.963,3.92-1.007,3.532,1.14c-3.537,19.584-6.056,54.319,6.605,97.854
	c12.817,44.069,34.426,75.062,48.255,91.604c1.414,1.691-0.759,4.002-2.545,2.711L71.474,278.334
	c-1.469-1.062-0.726-3.383,1.087-3.395l111.185-0.724c5.605-0.036,10.702-3.254,13.145-8.298L214.758,229.036z"/>
<linearGradient id="SVGID_2_" gradientUnits="userSpaceOnUse" x1="228.1766" y1="294.2856" x2="761.7864" y2="294.2856">
	<stop  offset="0" style="stop-color:#004F88"/>
	<stop  offset="1" style="stop-color:#478ECB"/>
</linearGradient>
<path class="st2" d="M761.786,280.718c0-4.451-3.608-8.059-8.058-8.059H285.227c-9.141-0.023-16.776-6.924-17.782-16.013
	c-2.077-18.763-3.143-37.83-3.143-57.147c0-19.837,1.15-39.404,3.348-58.653c0.374-3.278-3.985-4.803-5.694-1.98
	c-21.434,35.408-33.779,76.931-33.779,121.342c0,78.447,38.493,147.898,97.617,190.513c1.176,0.848,356.978,0.29,424.87,0.175
	c6.153-0.01,11.12-5.001,11.12-11.154L761.786,280.718z"/>
<text transform="matrix(1 0 0 1 321.5195 349.8955)"><tspan x="0" y="0" class="st3 st4 st5 st6">Mon Crédit</tspan><tspan x="417.037" y="0" class="st3 st4 st7 st6"> </tspan><tspan x="0" y="74.536" class="st3 st4 st8 st9">Européen</tspan></text>
</svg>
